<svg width="14" height="14" viewBox="0 0 14 14" fill="none" xmlns="http://www.w3.org/2000/svg">
<path fill-rule="evenodd" clip-rule="evenodd" d="M3.68883 2.99992C3.88482 1.54338 5.3404 0.333252 6.99977 0.333252C8.65913 0.333252 10.1147 1.54338 10.3107 2.99992H12.2311C12.9675 2.99992 13.5644 3.59687 13.5644 4.33325C13.5644 4.39634 13.5599 4.45936 13.551 4.52181L12.4082 12.5218C12.3143 13.1787 11.7518 13.6666 11.0882 13.6666H2.9113C2.24776 13.6666 1.6852 13.1787 1.59136 12.5218L0.448507 4.52181C0.344367 3.79283 0.850899 3.11746 1.57988 3.01332C1.64234 3.0044 1.70535 2.99992 1.76844 2.99992H3.68883ZM8.95206 2.99992C8.7494 2.29197 7.93216 1.66659 7.00014 1.66659C6.06812 1.66659 5.25088 2.29197 5.04822 2.99992H8.95206ZM1.76827 4.33325H3.66626V5.66658H4.9996V4.33325H8.9996V5.66658H10.3329V4.33325H12.2309L11.0881 12.3333H2.91113L1.76827 4.33325Z" fill="black"/>
</svg>
