<svg width="19" height="20" viewBox="0 0 19 20" fill="none" xmlns="http://www.w3.org/2000/svg">
<path fill-rule="evenodd" clip-rule="evenodd" d="M9.04883 0.00195312C8.49654 0.00195312 8.04883 0.449668 8.04883 1.00195C8.04883 1.53867 8.47167 1.97664 9.00239 2.00089V3.05923C7.17298 3.27576 5.40045 4.08588 3.99674 5.48959C3.60621 5.88011 3.60621 6.51328 3.99674 6.9038C4.38726 7.29433 5.02043 7.29433 5.41095 6.9038C7.94936 4.36539 12.0649 4.36539 14.6033 6.9038C17.1418 9.44221 17.1418 13.5578 14.6033 16.0962C12.0649 18.6346 7.94936 18.6346 5.41095 16.0962C5.02043 15.7057 4.38726 15.7057 3.99674 16.0962C3.60621 16.4867 3.60621 17.1199 3.99674 17.5104C7.3162 20.8299 12.6981 20.8299 16.0176 17.5104C19.1407 14.3873 19.3254 9.43851 16.5718 6.09942C16.6037 6.07442 16.6346 6.0472 16.664 6.01777L17.2731 5.40864C17.6636 5.01812 17.6636 4.38495 17.2731 3.99443C16.8826 3.6039 16.2494 3.6039 15.8589 3.99443L15.2498 4.60356C15.2109 4.64246 15.1758 4.68378 15.1447 4.72703C13.9085 3.78688 12.4737 3.23057 11.0024 3.05811V2.00092C11.5334 1.97691 11.9565 1.53884 11.9565 1.00195C11.9565 0.449668 11.5087 0.00195312 10.9565 0.00195312H9.04883ZM9.29533 10.779C8.90481 11.1696 8.90481 11.8027 9.29533 12.1933C9.68586 12.5838 10.319 12.5838 10.7095 12.1933L13.342 9.56079C13.7325 9.17026 13.7325 8.5371 13.342 8.14657C12.9515 7.75605 12.3183 7.75605 11.9278 8.14657L9.29533 10.779ZM1.91016 11.4941C1.91016 10.9419 2.35787 10.4941 2.91016 10.4941H5.77159C6.32388 10.4941 6.77159 10.9419 6.77159 11.4941C6.77159 12.0464 6.32388 12.4941 5.77159 12.4941H2.91016C2.35787 12.4941 1.91016 12.0464 1.91016 11.4941ZM1.00195 7.63245C0.449668 7.63245 0.00195312 8.08016 0.00195312 8.63245C0.00195312 9.18473 0.449668 9.63245 1.00195 9.63245H3.86339C4.41568 9.63245 4.86339 9.18473 4.86339 8.63245C4.86339 8.08016 4.41568 7.63245 3.86339 7.63245H1.00195ZM0.00195312 14.3553C0.00195312 13.8031 0.449668 13.3553 1.00195 13.3553H3.86339C4.41568 13.3553 4.86339 13.8031 4.86339 14.3553C4.86339 14.9076 4.41568 15.3553 3.86339 15.3553H1.00195C0.449668 15.3553 0.00195312 14.9076 0.00195312 14.3553Z" fill="black"/>
</svg>
