<svg width="19" height="16" viewBox="0 0 19 16" fill="none" xmlns="http://www.w3.org/2000/svg">
<path fill-rule="evenodd" clip-rule="evenodd" d="M6.20715 1.70723C6.59767 1.3167 6.59767 0.68354 6.20715 0.293015C5.81662 -0.0975089 5.18346 -0.097509 4.79293 0.293015L0.550293 4.53566L4.79293 8.7783C5.18346 9.16882 5.81662 9.16882 6.20715 8.7783C6.59767 8.38777 6.59767 7.75461 6.20715 7.36408L4.34303 5.49997H12.25C14.5973 5.49997 16.5 7.40276 16.5 9.74997C16.5 12.0972 14.5973 14 12.25 14H2.50004C1.94776 14 1.50004 14.4477 1.50004 15C1.50004 15.5523 1.94776 16 2.50004 16H12.25C15.7018 16 18.5 13.2017 18.5 9.74997C18.5 6.29819 15.7018 3.49997 12.25 3.49997H4.41441L6.20715 1.70723Z" fill="black"/>
</svg>
