<svg width="14" height="14" viewBox="0 0 14 14" fill="none" xmlns="http://www.w3.org/2000/svg">
<path fill-rule="evenodd" clip-rule="evenodd" d="M9.75958 0.341075C8.8822 0.341064 8.31664 0.455986 7.66832 0.804894C7.42829 0.934071 7.2031 1.08964 6.99396 1.27113C6.79289 1.09981 6.5767 0.951388 6.34659 0.826258C5.68569 0.466855 5.09112 0.341064 4.24522 0.341064C1.9797 0.341064 0.333374 2.40493 0.333374 5.08541C0.333374 7.1097 1.35994 9.06513 3.27207 10.956C4.27573 11.9485 5.55721 12.9307 6.47495 13.4532L7.00004 13.7521L7.52513 13.4532C8.44288 12.9307 9.72435 11.9485 10.728 10.956C12.6401 9.06513 13.6667 7.1097 13.6667 5.08541C13.6667 2.43331 12.0049 0.351298 9.75958 0.341075ZM12.4547 5.0853C12.4547 6.67123 11.5978 8.3034 9.91757 9.96498C9.00148 10.8709 7.82377 11.7762 7.00016 12.2511C6.17654 11.7762 4.99884 10.8709 4.08275 9.96498C2.40248 8.3034 1.54561 6.67123 1.54561 5.0853C1.54561 3.10479 2.68721 1.67366 4.24534 1.67366C4.9179 1.67366 5.33236 1.76134 5.80933 2.02072C6.09107 2.17394 6.34008 2.37624 6.55563 2.62905L7.00157 3.15209L7.44346 2.62491C7.66386 2.36197 7.91653 2.15506 8.20132 2.00179C8.66432 1.75262 9.05289 1.67366 9.75718 1.67366C11.296 1.68068 12.4547 3.13228 12.4547 5.0853Z" fill="black"/>
</svg>
