<svg width="16" height="22" viewBox="0 0 16 22" fill="none" xmlns="http://www.w3.org/2000/svg">
<path fill-rule="evenodd" clip-rule="evenodd" d="M8 2C4.96243 2 2.5 4.46243 2.5 7.5C2.5 10.5376 4.96243 13 8 13C11.0376 13 13.5 10.5376 13.5 7.5C13.5 4.46243 11.0376 2 8 2ZM0.5 7.5C0.5 3.35786 3.85786 0 8 0C12.1421 0 15.5 3.35786 15.5 7.5C15.5 9.46908 14.7412 11.2609 13.5 12.5991V21C13.5 21.3466 13.3205 21.6684 13.0257 21.8507C12.7309 22.0329 12.3628 22.0494 12.0528 21.8944L8 19.868L3.94721 21.8944C3.63723 22.0494 3.26909 22.0329 2.97427 21.8507C2.67945 21.6684 2.5 21.3466 2.5 21V12.5991C1.25883 11.2609 0.5 9.46908 0.5 7.5ZM4.5 14.135V19.382L7.55279 17.8556C7.83431 17.7148 8.16569 17.7148 8.44721 17.8556L11.5 19.382V14.135C10.4551 14.6873 9.26409 15 8 15C6.73591 15 5.54486 14.6873 4.5 14.135ZM6.96716 5.97849C6.96139 5.99626 6.95446 6.01341 6.94646 6.02986C6.88827 6.14961 6.77386 6.23273 6.64199 6.25107C6.62387 6.25359 6.60542 6.25489 6.58674 6.25489H4.47572C4.08823 6.25489 3.92712 6.75073 4.2406 6.97849L5.94846 8.21932C5.96357 8.2303 5.97774 8.2422 5.99091 8.25488C6.08682 8.34723 6.13052 8.48173 6.10721 8.6128C6.10401 8.63082 6.09954 8.64877 6.09377 8.66653L5.44142 10.6742C5.32168 11.0428 5.74347 11.3492 6.05696 11.1214L7.76481 9.88062C7.77993 9.86964 7.79562 9.85984 7.81176 9.85123C7.92922 9.78856 8.07064 9.78856 8.1881 9.85123C8.20424 9.85984 8.21993 9.86964 8.23504 9.88062L9.94289 11.1214C10.2564 11.3492 10.6782 11.0428 10.5584 10.6742L9.90609 8.66653C9.90032 8.64877 9.89585 8.63082 9.89264 8.6128C9.86934 8.48173 9.91304 8.34723 10.0089 8.25488C10.0221 8.2422 10.0363 8.2303 10.0514 8.21932L11.7593 6.97849C12.0727 6.75073 11.9116 6.25489 11.5241 6.25489H9.41311C9.39443 6.25489 9.37598 6.25359 9.35786 6.25107C9.226 6.23273 9.11159 6.14961 9.0534 6.02986C9.0454 6.01341 9.03846 5.99626 9.03269 5.97849L8.38035 3.97079C8.26061 3.60227 7.73925 3.60227 7.6195 3.97079L6.96716 5.97849ZM7.99492 7.79834L7.99993 7.79471L8.00493 7.79834L8.00302 7.80423H7.99683L7.99492 7.79834Z" fill="black"/>
</svg>
