<svg width="18" height="18" viewBox="0 0 18 18" fill="none" xmlns="http://www.w3.org/2000/svg">
<path d="M13.8 4C13.2477 4 12.8 4.44772 12.8 5C12.8 5.55228 13.2477 6 13.8 6V4ZM13.8422 6C14.3945 6 14.8422 5.55228 14.8422 5C14.8422 4.44772 14.3945 4 13.8422 4V6ZM4.2 2H13.8V0H4.2V2ZM16 4.2V13.8H18V4.2H16ZM13.8 16H4.2V18H13.8V16ZM2 13.8V4.2H0V13.8H2ZM4.2 16C2.98497 16 2 15.015 2 13.8H0C0 16.1196 1.8804 18 4.2 18V16ZM16 13.8C16 15.015 15.015 16 13.8 16V18C16.1196 18 18 16.1196 18 13.8H16ZM13.8 2C15.015 2 16 2.98497 16 4.2H18C18 1.8804 16.1196 0 13.8 0V2ZM4.2 0C1.8804 0 0 1.8804 0 4.2H2C2 2.98497 2.98497 2 4.2 2V0ZM9 11.2C7.78497 11.2 6.8 10.215 6.8 9H4.8C4.8 11.3196 6.6804 13.2 9 13.2V11.2ZM11.2 9C11.2 10.215 10.215 11.2 9 11.2V13.2C11.3196 13.2 13.2 11.3196 13.2 9H11.2ZM9 6.8C10.215 6.8 11.2 7.78497 11.2 9H13.2C13.2 6.6804 11.3196 4.8 9 4.8V6.8ZM9 4.8C6.6804 4.8 4.8 6.6804 4.8 9H6.8C6.8 7.78497 7.78497 6.8 9 6.8V4.8ZM13.8 6H13.8422V4H13.8V6Z" fill="black"/>
</svg>
