<svg width="21" height="20" viewBox="0 0 21 20" fill="none" xmlns="http://www.w3.org/2000/svg">
<path fill-rule="evenodd" clip-rule="evenodd" d="M11.0189 0.145202L11.0192 0.145348L11.0204 0.14607L11.0286 0.151023L11.0656 0.173071C11.0993 0.192986 11.1506 0.22307 11.2181 0.261873C11.3532 0.339508 11.5529 0.451868 11.8057 0.587386C12.3122 0.858834 13.0276 1.22102 13.861 1.58264C15.5572 2.31865 17.6248 3 19.3889 3C19.9411 3 20.3889 3.44772 20.3889 4C20.3889 9.79911 18.0365 13.784 15.6746 16.3082C14.4987 17.565 13.3229 18.4581 12.4375 19.0392C11.9942 19.3301 11.6218 19.544 11.356 19.6871C11.223 19.7587 11.1164 19.8128 11.0407 19.8499C11.0029 19.8685 10.9727 19.8829 10.9508 19.8932L10.9242 19.9056L10.9156 19.9095L10.9126 19.9109L10.9114 19.9115C10.9108 19.9117 10.9103 19.9119 10.5 19C10.0896 19.9119 10.0891 19.9117 10.0886 19.9115L10.0874 19.9109L10.0843 19.9095L10.0758 19.9056L10.0491 19.8932C10.0272 19.8829 9.99708 19.8685 9.95923 19.8499C9.88354 19.8128 9.77698 19.7587 9.64398 19.6871C9.3781 19.544 9.00572 19.3301 8.56243 19.0392C7.67703 18.4581 6.50123 17.565 5.32533 16.3082C2.96347 13.784 0.611084 9.79911 0.611084 4C0.611084 3.44772 1.0588 3 1.61108 3C3.37511 3 5.44279 2.31865 7.13894 1.58264C7.97231 1.22102 8.6878 0.858834 9.1942 0.587386C9.44702 0.451868 9.64672 0.339508 9.78181 0.261873C9.84934 0.22307 9.90065 0.192986 9.9343 0.173071L9.97134 0.151023L9.97958 0.14607L9.98077 0.145348L9.98101 0.145202C10.2999 -0.048389 10.7 -0.0484007 11.0189 0.145167L11.0189 0.145202ZM10.5 19L10.9103 19.9119C10.6494 20.0294 10.3506 20.0294 10.0896 19.9119L10.5 19ZM11.3402 17.3671C11.0015 17.5894 10.714 17.7578 10.5 17.8759C10.2859 17.7578 9.99848 17.5894 9.65974 17.3671C8.87847 16.8544 7.83205 16.06 6.78573 14.9418C4.8318 12.8535 2.86953 9.63027 2.63454 4.94467C4.51693 4.7485 6.44628 4.06339 7.93508 3.41736C8.83011 3.02898 9.5961 2.64117 10.1391 2.35011C10.2732 2.27822 10.394 2.21209 10.5 2.15316C10.606 2.21209 10.7267 2.27822 10.8609 2.35011C11.4038 2.64117 12.1698 3.02898 13.0649 3.41736C14.5537 4.06339 16.483 4.7485 18.3654 4.94467C18.1304 9.63027 16.1681 12.8535 14.2142 14.9418C13.1679 16.06 12.1215 16.8544 11.3402 17.3671ZM8.24331 9.33104C7.8328 8.96158 7.16723 8.96158 6.75672 9.33104C6.34621 9.70049 6.34621 10.2995 6.75672 10.669L9.75177 13.3645L14.6049 8.64241C14.9992 8.25884 14.9732 7.66028 14.5471 7.30549C14.1209 6.9507 13.4558 6.97403 13.0616 7.35759L9.69271 10.6355L8.24331 9.33104Z" fill="black"/>
</svg>
