<svg width="23" height="15" viewBox="0 0 23 15" fill="none" xmlns="http://www.w3.org/2000/svg">
<path fill-rule="evenodd" clip-rule="evenodd" d="M15.8839 2L17.7263 5.68474L20.502 7.53518V11H19.3293C18.9175 9.83481 17.8062 9 16.5 9C15.1938 9 14.0825 9.83481 13.6707 11H9.32929C8.91746 9.83481 7.80622 9 6.5 9C5.19378 9 4.08254 9.83481 3.67071 11H2.50195V2H15.8839ZM20.502 13H19.3293C18.9175 14.1652 17.8062 15 16.5 15C15.1938 15 14.0825 14.1652 13.6707 13H9.32929C8.91746 14.1652 7.80622 15 6.5 15C5.19378 15 4.08254 14.1652 3.67071 13H2.50195C1.39738 13 0.501953 12.1046 0.501953 11V2C0.501953 0.89543 1.39738 0 2.50195 0H15.8839C16.6415 0 17.334 0.428005 17.6728 1.10557L19.2776 4.31526L22.502 6.46482V11C22.502 12.1046 21.6065 13 20.502 13ZM7.5 12C7.5 12.5523 7.05228 13 6.5 13C5.94772 13 5.5 12.5523 5.5 12C5.5 11.4477 5.94772 11 6.5 11C7.05228 11 7.5 11.4477 7.5 12ZM17.5 12C17.5 12.5523 17.0523 13 16.5 13C15.9477 13 15.5 12.5523 15.5 12C15.5 11.4477 15.9477 11 16.5 11C17.0523 11 17.5 11.4477 17.5 12Z" fill="black"/>
</svg>
